<?xml version="1.0" encoding="utf-8"?>
<!-- Generator: Adobe Illustrator 19.0.0, SVG Export Plug-In . SVG Version: 6.00 Build 0)  -->
<svg version="1.1" id="Layer_1" xmlns="http://www.w3.org/2000/svg" xmlns:xlink="http://www.w3.org/1999/xlink" x="0px" y="0px"
	 viewBox="0 0 68.138 53.798" enable-background="new 0 0 68.138 53.798" xml:space="preserve">
<g>
	<g id="XMLID_27_">
		<path id="XMLID_30_" d="M29.875,8.402L25.324,0C8.441,8.559,0,20.422,0,35.593c0,5.058,1.594,9.356,4.785,12.895
			c3.189,3.541,6.923,5.31,11.203,5.31c3.889,0,7.137-1.36,9.744-4.084c2.606-2.722,3.909-6.068,3.909-10.036
			c0-3.734-1.324-7.02-3.968-9.861c-2.646-2.839-6.03-4.493-10.153-4.96C15.521,18.555,20.306,13.07,29.875,8.402z M53.784,24.857
			c0-6.302,4.785-11.787,14.354-16.455L63.587,0C46.704,8.559,38.263,20.422,38.263,35.593c0,5.058,1.594,9.356,4.785,12.895
			c3.189,3.541,6.924,5.31,11.203,5.31c3.889,0,7.137-1.36,9.744-4.084c2.606-2.722,3.909-6.068,3.909-10.036
			c0-3.734-1.324-7.02-3.968-9.861C61.291,26.978,57.907,25.324,53.784,24.857z"/>
	</g>
</g>
</svg>
